<svg width="128" height="128" viewBox="0 0 128 128" fill="none" xmlns="http://www.w3.org/2000/svg">
    <path fill-rule="evenodd" clip-rule="evenodd" d="M51.3061 8.50762C57.0762 7.18657 63.0525 6.76511 69.0216 7.29205C72.0474 7.55916 74.2837 10.2286 74.0166 13.2544C73.7495 16.2802 71.0801 18.5165 68.0543 18.2494C63.2383 17.8243 58.4166 18.1643 53.761 19.2302C50.8001 19.9081 47.8502 18.0573 47.1723 15.0964C46.4944 12.1354 48.3452 9.18553 51.3061 8.50762ZM42.3682 17.0243C43.9252 19.6324 43.073 23.009 40.4649 24.566C36.3135 27.0442 32.6062 30.1456 29.4587 33.7379C27.4569 36.0225 23.9821 36.2519 21.6974 34.2501C19.4127 32.2483 19.1834 28.7735 21.1852 26.4888C25.0861 22.0366 29.6813 18.1924 34.8265 15.1209C37.4347 13.5639 40.8112 14.4161 42.3682 17.0243ZM18.9349 38.6278C21.7251 39.8285 23.0136 43.0638 21.8129 45.854C19.9018 50.295 18.7157 54.9808 18.2709 59.7361C17.988 62.7605 15.307 64.9829 12.2826 64.7C9.25826 64.4171 7.03583 61.7361 7.3187 58.7117C7.86994 52.8181 9.34008 47.0101 11.7087 41.5059C12.9094 38.7157 16.1447 37.4271 18.9349 38.6278ZM115.75 63.8679C118.772 64.1823 120.966 66.8863 120.652 69.9076C120.039 75.7952 118.508 81.5875 116.082 87.0668C114.853 89.8443 111.604 91.0991 108.827 89.8694C106.049 88.6397 104.794 85.3912 106.024 82.6137C107.981 78.1928 109.216 73.5196 109.711 68.7692C110.025 65.7479 112.729 63.5536 115.75 63.8679ZM12.6101 69.8662C15.5745 69.2037 18.5147 71.0698 19.1772 74.0343C20.2316 78.7526 22.0169 83.2444 24.4436 87.3581C25.987 89.9743 25.1173 93.3464 22.501 94.8898C19.8848 96.4331 16.5127 95.5634 14.9693 92.9472C11.9617 87.8488 9.74885 82.2813 8.44198 76.4333C7.77951 73.4688 9.64563 70.5286 12.6101 69.8662ZM106.019 94.2181C108.282 96.2436 108.476 99.7206 106.45 101.984C102.503 106.396 97.868 110.192 92.6911 113.209C90.0668 114.739 86.6993 113.852 85.1696 111.228C83.6399 108.603 84.5272 105.236 87.1514 103.706C91.3283 101.271 95.0678 98.2087 98.2525 94.6495C100.278 92.3858 103.755 92.1926 106.019 94.2181ZM25.7942 98.8837C27.8078 96.6094 31.2838 96.3982 33.5581 98.4118C37.1778 101.617 41.257 104.21 45.6342 106.121C48.4181 107.336 49.6897 110.578 48.4745 113.362C47.2593 116.146 44.0174 117.417 41.2335 116.202C35.8084 113.834 30.7524 110.62 26.266 106.647C23.9918 104.634 23.7806 101.158 25.7942 98.8837ZM80.3457 113.105C80.9927 116.073 79.1113 119.004 76.1434 119.651C70.3599 120.912 64.3795 121.271 58.4163 120.682C55.3934 120.383 53.185 117.69 53.4836 114.668C53.7822 111.645 56.4748 109.436 59.4977 109.735C64.309 110.21 69.1339 109.92 73.8004 108.903C76.7682 108.256 79.6986 110.138 80.3457 113.105Z" fill="#E0E9FB"/>
    <path d="M87 51H40" stroke="#A7AFBC" stroke-width="7" stroke-linecap="round"/>
    <path d="M87 76H40" stroke="#A7AFBC" stroke-width="7" stroke-linecap="round"/>
    <circle cx="52.0146" cy="51.0145" r="8" fill="#E0E9FB"/>
    <circle cx="75.0146" cy="76.0145" r="8" fill="#E0E9FB"/>
</svg>
